HIERARCHY
ROOT Hips
{
    OFFSET   0.000000   0.000000   0.000000
    CHANNELS 6 Xposition Yposition Zposition Zrotation Xrotation Yrotation
    JOINT Chest
    {
        OFFSET   0.000000   8.007230   0.000000
        CHANNELS 3 Zrotation Xrotation Yrotation
        JOINT Chest2
        {
            OFFSET   0.000000  22.077100   0.000000
            CHANNELS 3 Zrotation Xrotation Yrotation
            JOINT Neck
            {
                OFFSET   0.000000  23.254800   0.000000
                CHANNELS 3 Zrotation Xrotation Yrotation
                JOINT Head
                {
                    OFFSET   0.000010  14.370000   1.956600
                    CHANNELS 3 Zrotation Xrotation Yrotation
                    End Site
                    {
                        OFFSET   0.000000  19.566000   0.000000
                    }
                }
            }
            JOINT LeftCollar
            {
                OFFSET   3.911900  19.017000  -0.467062
                CHANNELS 3 Zrotation Xrotation Yrotation
                JOINT LeftShoulder
                {
                    OFFSET  10.383700   0.000000   0.000000
                    CHANNELS 3 Zrotation Xrotation Yrotation
                    JOINT LeftElbow
                    {
                        OFFSET  26.662100   0.001193   0.000835
                        CHANNELS 3 Zrotation Xrotation Yrotation
                        JOINT LeftWrist
                        {
                            OFFSET  28.869000  -0.000058  -0.000075
                            CHANNELS 3 Zrotation Xrotation Yrotation
                            JOINT LeftFinger0
                            {
                                OFFSET   2.044660  -2.323460   3.252850
                                CHANNELS 3 Zrotation Xrotation Yrotation
                                JOINT LeftFinger01
                                {
                                    OFFSET   3.088130   0.000000   0.000000
                                    CHANNELS 3 Zrotation Xrotation Yrotation
                                    JOINT LeftFinger02
                                    {
                                        OFFSET   2.639450   0.000000   0.000000
                                        CHANNELS 3 Zrotation Xrotation Yrotation
                                        End Site
                                        {
                                            OFFSET   2.582190   0.000000   0.000000
                                        }
                                    }
                                }
                            }
                            JOINT LeftFinger1
                            {
                                OFFSET   8.364480   0.000000   3.252850
                                CHANNELS 3 Zrotation Xrotation Yrotation
                                JOINT LeftFinger11
                                {
                                    OFFSET   4.646920   0.000000   0.000000
                                    CHANNELS 3 Zrotation Xrotation Yrotation
                                    JOINT LeftFinger12
                                    {
                                        OFFSET   2.323460   0.000000   0.000000
                                        CHANNELS 3 Zrotation Xrotation Yrotation
                                        End Site
                                        {
                                            OFFSET   2.273050   0.000000   0.000000
                                        }
                                    }
                                }
                            }
                            JOINT LeftFinger2
                            {
                                OFFSET   8.364490   0.000016   1.078090
                                CHANNELS 3 Zrotation Xrotation Yrotation
                                JOINT LeftFinger21
                                {
                                    OFFSET   5.111620   0.000000   0.000000
                                    CHANNELS 3 Zrotation Xrotation Yrotation
                                    JOINT LeftFinger22
                                    {
                                        OFFSET   2.788150   0.000012   0.000000
                                        CHANNELS 3 Zrotation Xrotation Yrotation
                                        End Site
                                        {
                                            OFFSET   2.727660   0.000000   0.000000
                                        }
                                    }
                                }
                            }
                            JOINT LeftFinger3
                            {
                                OFFSET   7.899780   0.000014  -1.078090
                                CHANNELS 3 Zrotation Xrotation Yrotation
                                JOINT LeftFinger31
                                {
                                    OFFSET   4.646930   0.000000   0.000000
                                    CHANNELS 3 Zrotation Xrotation Yrotation
                                    JOINT LeftFinger32
                                    {
                                        OFFSET   2.323470   0.000000   0.000000
                                        CHANNELS 3 Zrotation Xrotation Yrotation
                                        End Site
                                        {
                                            OFFSET   2.273050   0.000000   0.000000
                                        }
                                    }
                                }
                            }
                            JOINT LeftFinger4
                            {
                                OFFSET   7.435090   0.000000  -3.252850
                                CHANNELS 3 Zrotation Xrotation Yrotation
                                JOINT LeftFinger41
                                {
                                    OFFSET   3.717550   0.000000   0.000000
                                    CHANNELS 3 Zrotation Xrotation Yrotation
                                    JOINT LeftFinger42
                                    {
                                        OFFSET   1.858770   0.000000   0.000000
                                        CHANNELS 3 Zrotation Xrotation Yrotation
                                        End Site
                                        {
                                            OFFSET   1.818440   0.000000   0.000000
                                        }
                                    }
                                }
                            }
                        }
                    }
                }
            }
            JOINT RightCollar
            {
                OFFSET  -3.911900  19.017000  -0.467063
                CHANNELS 3 Zrotation Xrotation Yrotation
                JOINT RightShoulder
                {
                    OFFSET -10.383700   0.000023   0.000000
                    CHANNELS 3 Zrotation Xrotation Yrotation
                    JOINT RightElbow
                    {
                        OFFSET -26.662100   0.001246   0.001011
                        CHANNELS 3 Zrotation Xrotation Yrotation
                        JOINT RightWrist
                        {
                            OFFSET -28.869000  -0.000026  -0.000078
                            CHANNELS 3 Zrotation Xrotation Yrotation
                            JOINT RightFinger0
                            {
                                OFFSET  -2.044660  -2.323490   3.252850
                                CHANNELS 3 Zrotation Xrotation Yrotation
                                JOINT RightFinger01
                                {
                                    OFFSET  -3.088130   0.000000   0.000000
                                    CHANNELS 3 Zrotation Xrotation Yrotation
                                    JOINT RightFinger02
                                    {
                                        OFFSET  -2.639460   0.000000   0.000000
                                        CHANNELS 3 Zrotation Xrotation Yrotation
                                        End Site
                                        {
                                            OFFSET  -2.582190   0.000000   0.000000
                                        }
                                    }
                                }
                            }
                            JOINT RightFinger1
                            {
                                OFFSET  -8.364480   0.000000   3.252850
                                CHANNELS 3 Zrotation Xrotation Yrotation
                                JOINT RightFinger11
                                {
                                    OFFSET  -4.646920   0.000000   0.000000
                                    CHANNELS 3 Zrotation Xrotation Yrotation
                                    JOINT RightFinger12
                                    {
                                        OFFSET  -2.323470   0.000000   0.000000
                                        CHANNELS 3 Zrotation Xrotation Yrotation
                                        End Site
                                        {
                                            OFFSET  -2.273050   0.000000   0.000000
                                        }
                                    }
                                }
                            }
                            JOINT RightFinger2
                            {
                                OFFSET  -8.364480   0.000000   1.078090
                                CHANNELS 3 Zrotation Xrotation Yrotation
                                JOINT RightFinger21
                                {
                                    OFFSET  -5.111620   0.000000   0.000000
                                    CHANNELS 3 Zrotation Xrotation Yrotation
                                    JOINT RightFinger22
                                    {
                                        OFFSET  -2.788160   0.000000   0.000000
                                        CHANNELS 3 Zrotation Xrotation Yrotation
                                        End Site
                                        {
                                            OFFSET  -2.727660   0.000000   0.000000
                                        }
                                    }
                                }
                            }
                            JOINT RightFinger3
                            {
                                OFFSET  -7.899780   0.000000  -1.078090
                                CHANNELS 3 Zrotation Xrotation Yrotation
                                JOINT RightFinger31
                                {
                                    OFFSET  -4.646930   0.000000   0.000000
                                    CHANNELS 3 Zrotation Xrotation Yrotation
                                    JOINT RightFinger32
                                    {
                                        OFFSET  -2.323470   0.000000   0.000000
                                        CHANNELS 3 Zrotation Xrotation Yrotation
                                        End Site
                                        {
                                            OFFSET  -2.273050   0.000000   0.000000
                                        }
                                    }
                                }
                            }
                            JOINT RightFinger4
                            {
                                OFFSET  -7.435090   0.000000  -3.252850
                                CHANNELS 3 Zrotation Xrotation Yrotation
                                JOINT RightFinger41
                                {
                                    OFFSET  -3.717550   0.000000   0.000000
                                    CHANNELS 3 Zrotation Xrotation Yrotation
                                    JOINT RightFinger42
                                    {
                                        OFFSET  -1.858760   0.000000   0.000000
                                        CHANNELS 3 Zrotation Xrotation Yrotation
                                        End Site
                                        {
                                            OFFSET  -1.818440   0.000000   0.000000
                                        }
                                    }
                                }
                            }
                        }
                    }
                }
            }
        }
    }
    JOINT LeftHip
    {
        OFFSET   9.783010   0.000000   0.000000
        CHANNELS 3 Zrotation Xrotation Yrotation
        JOINT LeftKnee
        {
            OFFSET   0.000073 -41.789100   0.001749
            CHANNELS 3 Zrotation Xrotation Yrotation
            JOINT LeftAnkle
            {
                OFFSET   0.000111 -41.133200  -0.000179
                CHANNELS 3 Zrotation Xrotation Yrotation
                JOINT LeftToe
                {
                    OFFSET   0.000000  -6.358960  14.674500
                    CHANNELS 3 Zrotation Xrotation Yrotation
                    End Site
                    {
                        OFFSET   0.000000   0.000000   3.913200
                    }
                }
            }
        }
    }
    JOINT RightHip
    {
        OFFSET  -9.783010   0.000000   0.000000
        CHANNELS 3 Zrotation Xrotation Yrotation
        JOINT RightKnee
        {
            OFFSET   0.000424 -41.789200   0.005205
            CHANNELS 3 Zrotation Xrotation Yrotation
            JOINT RightAnkle
            {
                OFFSET   0.000000 -41.133200  -0.000155
                CHANNELS 3 Zrotation Xrotation Yrotation
                JOINT RightToe
                {
                    OFFSET   0.000000  -6.358960  14.674500
                    CHANNELS 3 Zrotation Xrotation Yrotation
                    End Site
                    {
                        OFFSET   0.000000   0.000000   3.913200
                    }
                }
            }
        }
    }
}
MOTION
Frames: 4
Frame Time:   0.016667
  0.812196  89.450000   2.058020  -2.836430  -7.405690   2.234110   0.910968   5.185510   0.216327   1.813400  10.373800   0.351610   1.954190   0.072074  -0.009786   3.210700   0.145546  -5.176610  -4.775440  -1.846380   1.511350 -73.261800  21.718100  -4.064540  -0.898070  -3.152740 -18.424800  17.098900 -14.713600   7.654080  37.287000  31.455400 -61.295600 -33.679400   0.002472   0.001689 -11.853000   0.000827   0.006164 -33.257400   5.700370  -8.623030 -27.575900  -0.003033   0.012427 -19.302900  -0.004177   0.003759 -28.585500  -1.099050   2.017730 -37.391200   0.003439   0.011535 -24.900200  -0.011481  -0.002332 -28.417700  -1.093370   2.020820 -35.479500   0.003732  -0.004587 -23.631900   0.003604   0.003108 -31.657500  -1.205710   1.955770 -47.517200   0.004891   0.004936 -31.646400   0.003946   0.000714  10.028100   0.565448   7.240920  67.810900  11.987700  -2.638250  -5.449910  -1.020040  18.589600 -10.460000  -9.712770   3.459650 -40.885500  35.043400  67.947800  29.830500   0.001484  -0.000775   9.915240   0.004451   0.003827  30.046900   6.884580  11.707300  25.162000   0.006765   0.002647  17.613400   0.012590   0.003993  28.317400   3.555080   6.565560  36.352600  -0.006473   0.005038  24.210800  -0.001289  -0.002293  27.739800   1.406890   2.672930  30.627900  -0.003680   0.002743  20.398200  -0.002003   0.001515  34.454100   0.364018   0.530302  51.683800  -0.000460   0.000444  34.421400   0.004194   0.002282   3.189400  10.258600   2.609900   0.647976   0.407058   4.052240  -1.474530  -4.231110   2.461190   0.000000   0.000000  -0.000000   1.750790  10.883300  -6.789330   0.503056   1.085630 -13.447000   0.224277  -4.737700   0.846210  -0.000000   0.000000   0.000000
  0.794424  89.450000   2.052080  -2.837580  -7.416320   2.221990   0.914671   5.197020   0.222095   1.820330  10.396900   0.362706   1.987840   0.096391  -0.009708   3.265950   0.194386  -5.313210  -4.781530  -1.851000   1.490330 -73.258400  21.734900  -4.069900  -0.903819  -3.167690 -18.431900  17.107100 -14.713500   7.654120  37.287600  31.460700 -61.295000 -33.685100   0.002466   0.001703 -11.853100   0.000837   0.006166 -33.260300   5.700470  -8.616510 -27.575900  -0.003033   0.012431 -19.302800  -0.004175   0.003758 -28.585500  -1.098930   2.017760 -37.384800   0.003440   0.011538 -24.900100  -0.011481  -0.002332 -28.417700  -1.093250   2.020850 -35.473800   0.003732  -0.004588 -23.631700   0.003605   0.003107 -31.657400  -1.205570   1.955800 -47.517000   0.004892   0.004938 -31.646300   0.003946   0.000714  10.096600   0.534926   7.281630  67.654500  12.195000  -2.638720  -5.458730  -0.830791  18.690300 -10.352400  -9.835460   3.451040 -40.936800  35.093400  68.030600  29.803100   0.001483  -0.000776   9.901560   0.004457   0.003831  30.025900   6.890590  11.731600  25.146500   0.006766   0.002649  17.602600   0.012588   0.003994  28.312700   3.559900   6.575610  36.323800  -0.006476   0.005026  24.191600  -0.001293  -0.002289  27.736800   1.413330   2.685750  30.613000  -0.003680   0.002741  20.388300  -0.002004   0.001521  34.441500   0.366839   0.534627  51.665000  -0.000462   0.000431  34.408900   0.004195   0.002282   3.202280  10.263300   2.609950   0.648609   0.410372   4.061050  -1.483840  -4.232510   2.466550  -0.000000   0.000000   0.000000   1.761860  10.890800  -6.780990   0.504314   1.083560 -13.442900   0.212031  -4.736660   0.846963   0.000000   0.000000   0.000000
  0.763242  89.449900   2.042120  -2.840360  -7.434680   2.195100   0.921641   5.217260   0.233397   1.833320  10.437600   0.384500   2.049620   0.137495  -0.009598   3.367530   0.277080  -5.553130  -4.791360  -1.857650   1.457870 -73.250400  21.769300  -4.084650  -0.913122  -3.193280 -18.439100  17.118600 -14.713400   7.654220  37.285800  31.467100 -61.295600 -33.694100   0.002459   0.001727 -11.853200   0.000852   0.006172 -33.265400   5.700570  -8.609990 -27.575900  -0.003033   0.012438 -19.302600  -0.004174   0.003757 -28.585500  -1.098710   2.017810 -37.378400   0.003441   0.011546 -24.899900  -0.011483  -0.002332 -28.417700  -1.093030   2.020900 -35.468200   0.003734  -0.004590 -23.631500   0.003606   0.003105 -31.657100  -1.205320   1.955850 -47.516700   0.004894   0.004941 -31.646100   0.003948   0.000714  10.201200   0.487311   7.345450  67.405100  12.548300  -2.631240  -5.455960  -0.561617  18.835800 -10.201200  -9.958250   3.432350 -40.985100  35.149600  68.108200  29.761600   0.001483  -0.000776   9.880790   0.004466   0.003835  29.984400   6.896600  11.755900  25.114300   0.006767   0.002650  17.580000   0.012586   0.003994  28.304800   3.564720   6.585660  36.264600  -0.006485   0.005000  24.152200  -0.001301  -0.002282  27.729500   1.419770   2.698580  30.574200  -0.003683   0.002740  20.362400  -0.002008   0.001533  34.411600   0.373583   0.545074  51.620200  -0.000467   0.000398  34.379000   0.004196   0.002284   3.226210  10.273500   2.610120   0.649618   0.416562   4.075390  -1.500200  -4.235290   2.477310   0.000000   0.000000   0.000000   1.783360  10.905100  -6.768470   0.506984   1.079130 -13.432100   0.190264  -4.735610   0.851094  -0.000000   0.000000   0.000000
  0.735108  89.449900   2.033810  -2.850120  -7.450630   2.159140   0.929005   5.236250   0.247007   1.846890  10.475900   0.410899   2.109870   0.170235  -0.009547   3.466550   0.343346  -5.769600  -4.800250  -1.861150   1.433110 -73.239800  21.809300  -4.109590  -0.917504  -3.213070 -18.438400  17.123000 -14.713200   7.654360  37.276400  31.464600 -61.303200 -33.701200   0.002462   0.001754 -11.852800   0.000857   0.006186 -33.269400   5.704370  -8.614120 -27.575600  -0.003032   0.012445 -19.302600  -0.004175   0.003759 -28.585500  -1.098410   2.017860 -37.382100   0.003443   0.011557 -24.899800  -0.011494  -0.002333 -28.417700  -1.092740   2.020950 -35.471600   0.003738  -0.004593 -23.631400   0.003608   0.003100 -31.656900  -1.205000   1.955900 -47.516300   0.004895   0.004945 -31.645800   0.003949   0.000715  10.265500   0.454485   7.386650  67.214100  12.854000  -2.553230  -5.405840  -0.462097  18.913000 -10.133400  -9.889200   3.411830 -41.007100  35.143700  68.035500  29.738400   0.001483  -0.000760   9.869190   0.004469   0.003833  29.926500   6.880430  11.752700  25.067300   0.006762   0.002644  17.547100   0.012591   0.003988  28.296900   3.559240   6.577310  36.173000  -0.006500   0.004964  24.091200  -0.001309  -0.002273  27.715100   1.414120   2.689230  30.493400  -0.003699   0.002743  20.308600  -0.002019   0.001547  34.357800   0.384870   0.563680  51.539500  -0.000475   0.000345  34.325200   0.004192   0.002290   3.248950  10.283800   2.615730   0.650505   0.424750   4.086640  -1.515420  -4.239400   2.489860   0.000000   0.000000   0.000000   1.807060  10.921400  -6.760020   0.510352   1.072090 -13.416200   0.169910  -4.735620   0.860949  -0.000000   0.000000   0.000000
